<svg id="dollar-ban" xmlns="http://www.w3.org/2000/svg" width="73.758" height="131.155" viewBox="0 0 73.758 131.155">
  <path id="Trazado_8493" data-name="Trazado 8493" d="M230.315,59.788,202.65,51.694a7.556,7.556,0,0,1,2.126-14.806h16.983a15.635,15.635,0,0,1,8.76,2.69,3.993,3.993,0,0,0,5-.512l8.914-8.71a4.153,4.153,0,0,0-.461-6.276,36.221,36.221,0,0,0-22.158-7.685V4.1a4.111,4.111,0,0,0-4.1-4.1h-8.2a4.111,4.111,0,0,0-4.1,4.1v12.3h-.64a28.066,28.066,0,0,0-27.921,30.637c1.076,11.809,10.093,21.415,21.466,24.745l26.256,7.685a7.556,7.556,0,0,1-2.126,14.806H205.468a15.636,15.636,0,0,1-8.76-2.69,3.993,3.993,0,0,0-4.995.512L182.8,100.8a4.152,4.152,0,0,0,.461,6.276,36.221,36.221,0,0,0,22.157,7.685v12.3a4.111,4.111,0,0,0,4.1,4.1h8.2a4.111,4.111,0,0,0,4.1-4.1V114.709c11.937-.231,23.131-7.326,27.076-18.623a28.129,28.129,0,0,0-18.572-36.3Z" transform="translate(-176.736 0)" fill="#737373"/>
</svg>
