<svg xmlns="http://www.w3.org/2000/svg" width="14.813" height="18" viewBox="0 0 14.813 18">
  <g id="Group_13275" data-name="Group 13275" transform="translate(-408 -827)">
    <path id="Path_6605" data-name="Path 6605" d="M9.188,6.338h1.688V1.05A1.048,1.048,0,0,1,11.925,0h4.238a1.048,1.048,0,0,1,1.05,1.05V6.338h1.725A1,1,0,0,1,20.025,7.35a.965.965,0,0,1-.375.825L14.775,13.05a1.064,1.064,0,0,1-1.5,0L8.4,8.175a1.21,1.21,0,0,1-.3-.788,1.135,1.135,0,0,1,1.088-1.05Z" transform="translate(401.326 827)" fill="#36c"/>
    <path id="Path_6606" data-name="Path 6606" d="M18.025,44.5H5.35a1.05,1.05,0,1,1,0-2.1H18.063a1.048,1.048,0,0,1,1.05,1.05A1.081,1.081,0,0,1,18.025,44.5Z" transform="translate(403.7 800.5)" fill="#36c"/>
  </g>
</svg>
