<svg id="Iconos_variables" data-name="Iconos variables" xmlns="http://www.w3.org/2000/svg" width="32" height="32" viewBox="0 0 32 32">
  <rect id="Rectangle_9349" data-name="Rectangle 9349" width="32" height="32" rx="8" fill="#fff"/>
  <path id="image" d="M21.75,82H2.25A2.25,2.25,0,0,1,0,79.75V66.25A2.25,2.25,0,0,1,2.25,64h19.5A2.25,2.25,0,0,1,24,66.25v13.5A2.25,2.25,0,0,1,21.75,82ZM5.25,66.625A2.625,2.625,0,1,0,7.875,69.25,2.625,2.625,0,0,0,5.25,66.625ZM3,79H21V73.75l-4.1-4.1a.563.563,0,0,0-.8,0L9.75,76l-2.6-2.6a.563.563,0,0,0-.8,0L3,76.75Z" transform="translate(4 -57)"/>
</svg>
