<svg id="Iconos_variables" data-name="Iconos variables" xmlns="http://www.w3.org/2000/svg" width="32" height="32" viewBox="0 0 32 32">
  <rect id="Rectangle_9349" data-name="Rectangle 9349" width="32" height="32" rx="8" fill="#fff"/>
  <path id="file-project" d="M17.672,4.922,13.078.328a1.124,1.124,0,0,0-.8-.328H12V6h6V5.714A1.121,1.121,0,0,0,17.672,4.922ZM10.5,6.375V0H1.125A1.122,1.122,0,0,0,0,1.125v21.75A1.122,1.122,0,0,0,1.125,24h15.75A1.122,1.122,0,0,0,18,22.875V7.5H11.625A1.128,1.128,0,0,1,10.5,6.375ZM2.409,11.32a.718.718,0,0,1,.811-.811H6.778a3.635,3.635,0,0,1,1.4.263,3.1,3.1,0,0,1,1.083.75,3.512,3.512,0,0,1,.7,1.148,4.051,4.051,0,0,1,.248,1.458,4.2,4.2,0,0,1-.248,1.463,3.486,3.486,0,0,1-.7,1.153,3.184,3.184,0,0,1-1.083.759,3.47,3.47,0,0,1-1.4.272h-1.8v2.442a.718.718,0,0,1-.811.811H3.216a.718.718,0,0,1-.811-.811v-8.9Zm3.834,4.247a1.234,1.234,0,0,0,1.008-.4,1.588,1.588,0,0,0,.333-1.036,1.543,1.543,0,0,0-.323-1.022,1.194,1.194,0,0,0-.97-.389H4.983v2.855H6.244Zm4.8-1.308a.718.718,0,0,1,.811-.811h.825a.718.718,0,0,1,.811.811v.469c0,.07,0,.127-.009.178s-.009.1-.009.145a.763.763,0,0,0-.014.145h.028a2.741,2.741,0,0,1,.281-.619,3.1,3.1,0,0,1,.455-.591,2.482,2.482,0,0,1,.6-.441,1.447,1.447,0,0,1,.684-.178.641.641,0,0,1,.539.206.991.991,0,0,1,.155.6V15a.718.718,0,0,1-.811.811,1.634,1.634,0,0,0-.792.183,1.612,1.612,0,0,0-.558.492,2.273,2.273,0,0,0-.333.722,3.282,3.282,0,0,0-.113.867v2.133a.718.718,0,0,1-.811.811h-.928a.718.718,0,0,1-.811-.811V14.259Z" transform="translate(7 4)"/>
</svg>
