<svg id="Iconos_variables" data-name="Iconos variables" xmlns="http://www.w3.org/2000/svg" width="32" height="32" viewBox="0 0 32 32">
  <rect id="Rectangle_9349" data-name="Rectangle 9349" width="32" height="32" rx="8" fill="#fff"/>
  <path id="file-powerpoint" d="M9.08,12.713a1.2,1.2,0,0,1,.952.38,1.723,1.723,0,0,1-.009,2.067,1.244,1.244,0,0,1-.989.4H7.772V12.713Zm8.592-7.791L13.078.328a1.124,1.124,0,0,0-.8-.328H12V6h6V5.714A1.121,1.121,0,0,0,17.672,4.922ZM10.5,6.375V0H1.125A1.122,1.122,0,0,0,0,1.125v21.75A1.122,1.122,0,0,0,1.125,24h15.75A1.122,1.122,0,0,0,18,22.875V7.5H11.625A1.128,1.128,0,0,1,10.5,6.375Zm2.484,7.744c0,4.233-4.163,3.637-5.208,3.637v2.681A.564.564,0,0,1,7.214,21H5.77a.564.564,0,0,1-.562-.562V11.072a.564.564,0,0,1,.563-.562h3.8A3.353,3.353,0,0,1,12.984,14.119Z" transform="translate(7 4)"/>
</svg>
