<svg id="Iconos_variables" data-name="Iconos variables" xmlns="http://www.w3.org/2000/svg" width="32" height="32" viewBox="0 0 32 32">
  <rect id="Rectangle_9349" data-name="Rectangle 9349" width="32" height="32" rx="8" fill="#fff"/>
  <path id="link" d="M15.309,8.69a7.121,7.121,0,0,1,.017,10.059l-.017.017-3.15,3.15A7.125,7.125,0,0,1,2.083,11.84L3.823,10.1a.749.749,0,0,1,1.279.5,8.637,8.637,0,0,0,.454,2.471.754.754,0,0,1-.177.779l-.613.613a3.375,3.375,0,1,0,4.742,4.8l3.15-3.15a3.374,3.374,0,0,0,0-4.773,3.511,3.511,0,0,0-.485-.4.752.752,0,0,1-.326-.591,1.867,1.867,0,0,1,.548-1.4l.987-.987a.753.753,0,0,1,.965-.081A7.148,7.148,0,0,1,15.309,8.69Zm6.606-6.607a7.133,7.133,0,0,0-10.076,0L8.69,5.233l-.017.017a7.126,7.126,0,0,0,.979,10.865.753.753,0,0,0,.965-.081l.987-.987a1.867,1.867,0,0,0,.548-1.4.752.752,0,0,0-.326-.591,3.511,3.511,0,0,1-.485-.4,3.374,3.374,0,0,1,0-4.773l3.15-3.15a3.375,3.375,0,1,1,4.742,4.8l-.613.613a.754.754,0,0,0-.177.779A8.637,8.637,0,0,1,18.9,13.4a.749.749,0,0,0,1.279.5l1.739-1.739a7.133,7.133,0,0,0,0-10.076Z" transform="translate(4 4)"/>
</svg>
